<?xml version="1.0" standalone="no"?>
<!DOCTYPE svg PUBLIC "-//W3C//DTD SVG 20010904//EN"
 "http://www.w3.org/TR/2001/REC-SVG-20010904/DTD/svg10.dtd">
<svg version="1.0" xmlns="http://www.w3.org/2000/svg"
 width="512.000000pt" height="512.000000pt" viewBox="0 0 512.000000 512.000000"
 preserveAspectRatio="xMidYMid meet">

<g transform="translate(0.000000,512.000000) scale(0.100000,-0.100000)"
fill="#000000" stroke="none">
<path d="M2473 5106 c-118 -38 -222 -153 -273 -302 -32 -89 -41 -149 -41 -264
0 -123 23 -226 73 -326 27 -55 36 -64 53 -59 49 13 216 35 275 35 60 0 226
-22 276 -35 17 -6 25 5 57 72 49 106 68 193 68 321 -1 244 -108 460 -267 538
-65 32 -159 40 -221 20z"/>
<path d="M1485 4200 c-524 -112 -1039 -324 -1216 -501 -84 -84 -166 -243 -205
-399 -38 -152 -26 -200 51 -200 54 0 138 43 253 130 287 218 654 398 927 455
44 9 125 17 180 17 l100 1 105 101 c98 95 201 175 271 211 l30 16 -23 41 c-33
59 -108 122 -168 141 -72 23 -153 20 -305 -13z"/>
<path d="M3328 4213 c-58 -19 -121 -72 -159 -131 l-28 -45 92 -61 c51 -33 141
-109 202 -167 l110 -106 100 0 c55 -1 136 -9 180 -18 260 -53 627 -232 908
-441 140 -104 216 -144 272 -144 55 0 70 19 69 84 -2 153 -123 425 -235 533
-139 132 -618 340 -1009 438 -309 77 -411 89 -502 58z"/>
<path d="M2360 4054 c-71 -15 -188 -50 -208 -63 -10 -6 5 -71 66 -282 l80
-274 262 0 262 0 80 274 c43 150 77 275 75 278 -12 11 -156 56 -224 69 -94 18
-306 17 -393 -2z"/>
<path d="M1940 3873 c-168 -112 -352 -317 -469 -521 -53 -94 -151 -306 -151
-329 0 -10 76 -13 348 -13 l347 0 88 175 c48 96 87 183 87 192 0 26 -152 553
-159 553 -3 0 -44 -25 -91 -57z"/>
<path d="M3006 3662 c-42 -147 -76 -275 -76 -285 0 -9 39 -96 87 -192 l88
-175 348 0 349 0 -7 27 c-13 53 -112 260 -169 353 -82 133 -168 240 -278 345
-82 79 -236 195 -258 195 -4 0 -42 -120 -84 -268z"/>
<path d="M2200 3131 l-89 -180 51 -135 51 -136 347 0 347 0 51 136 51 135 -89
180 -90 179 -270 0 -270 0 -90 -179z"/>
<path d="M1275 2888 c-45 -147 -95 -448 -95 -581 l0 -47 352 2 351 3 113 183
113 183 -43 117 c-25 64 -47 125 -51 135 -7 16 -34 17 -371 17 -283 0 -366 -3
-369 -12z"/>
<path d="M3105 2883 c-4 -10 -26 -71 -51 -135 l-43 -117 113 -183 113 -183
351 -3 352 -2 0 47 c0 116 -47 412 -88 558 l-8 30 -366 3 c-341 2 -366 1 -373
-15z"/>
<path d="M2093 2389 l-111 -181 111 -169 110 -169 357 0 357 0 110 169 111
169 -111 181 -112 181 -355 0 -355 0 -112 -181z"/>
<path d="M1180 2092 c0 -119 51 -462 81 -539 l9 -23 383 0 384 0 37 137 37
136 -69 106 c-37 58 -88 136 -113 173 l-44 68 -352 0 -353 0 0 -58z"/>
<path d="M3191 2082 c-25 -37 -76 -115 -113 -173 l-69 -106 37 -136 37 -137
384 0 383 0 9 23 c30 77 81 420 81 539 l0 58 -352 0 -353 0 -44 -68z"/>
<path d="M2211 1738 c-4 -13 -21 -74 -37 -135 l-29 -113 125 -125 125 -125
165 0 165 0 125 125 125 125 -29 113 c-16 61 -33 122 -37 135 l-9 22 -340 0
-340 0 -9 -22z"/>
<path d="M1327 1348 c87 -244 248 -502 410 -661 l59 -57 239 271 c132 149 242
276 244 281 2 6 -48 62 -110 124 l-114 114 -377 0 -378 0 27 -72z"/>
<path d="M2951 1306 c-62 -62 -112 -118 -110 -124 2 -5 112 -132 244 -281
l239 -271 59 57 c162 159 323 417 410 661 l27 72 -378 0 -377 0 -114 -114z"/>
<path d="M2140 850 c-135 -153 -245 -285 -245 -292 0 -28 209 -147 330 -187
108 -35 210 -51 333 -51 126 0 195 9 307 41 129 38 372 172 363 201 -2 5 -114
135 -248 288 l-245 279 -175 0 -175 0 -245 -279z"/>
<path d="M1548 619 c-82 -150 -138 -312 -138 -398 0 -174 226 -275 414 -186
83 39 192 169 220 262 6 19 0 26 -41 47 -97 49 -239 156 -329 246 l-91 92 -35
-63z"/>
<path d="M3445 589 c-93 -94 -197 -173 -310 -235 -74 -41 -74 -40 -27 -127 40
-75 125 -162 188 -192 148 -70 335 -23 395 101 41 85 12 217 -93 429 -27 55
-53 103 -57 107 -4 5 -47 -33 -96 -83z"/>
</g>
</svg>
